<?xml version="1.0" encoding="UTF-8" standalone="no"?> <!-- Created with Vectornator for iOS (http://vectornator.io/) --><!DOCTYPE svg PUBLIC "-//W3C//DTD SVG 1.1//EN" "http://www.w3.org/Graphics/SVG/1.1/DTD/svg11.dtd">
<svg height="100%" style="fill-rule:evenodd;clip-rule:evenodd;stroke-linecap:round;stroke-linejoin:round;" xmlns:xlink="http://www.w3.org/1999/xlink" xmlns="http://www.w3.org/2000/svg" xml:space="preserve" width="100%" xmlns:vectornator="http://vectornator.io" version="1.1" viewBox="0 0 200 200">
<metadata>
<vectornator:setting key="DisplayWhiteBackground" value="1"/>
<vectornator:setting key="RulersVisible" value="1"/>
<vectornator:setting key="Units" value="Pixels"/>
<vectornator:setting key="New" value="1"/>
<vectornator:setting key="DynamicGuides" value="0"/>
<vectornator:setting key="GuidesVisible" value="1"/>
<vectornator:setting key="SnapToPoints" value="0"/>
<vectornator:setting key="SnapToGrid" value="0"/>
<vectornator:setting key="SnapToGuides" value="1"/>
<vectornator:setting key="DimensionsVisible" value="1"/>
<vectornator:setting key="SnapToEdges" value="0"/>
</metadata>
<defs/>
<g id="图层 1" vectornator:layerName="图层 1">
<path d="M46.5411+32.2288L45.9512+33.3813L46.7333+32.3443L47.7901+32.1877L46.9788+32.1857L45.3509+31.7179L45.6245+31.1075L51.8482+29.3919L54.2653+28.0416L54.4973+28.5068L55.8094+27.6437L61.0356+30.3455L61.417+30.9811L59.7451+31.6296L59.3526+32.4114L59.8391+31.741L60.5865+31.4964L61.489+31.2933L61.9748+31.9107L64.5645+36.2266L64.3254+37.2325L64.0073+37.7136L62.9561+38.0049L62.6735+38.3328L61.865+39.6969L61.2353+38.8861L60.8904+39.041L61.093+40.1829L61.0985+40.6456L60.7929+40.8209L59.4108+39.3936L58.0931+40.0447L57.9475+41.2333L58.5096+42.9061L59.9555+43.5323L61.3478+42.4963L62.8835+42.7183L61.3782+42.2383L60.7197+41.657L61.046+40.947L61.319+40.8184L61.1711+39.1038L61.5976+39.7024L62.045+39.909L62.7894+38.507L63.2331+38.1517L64.3759+37.7527L64.671+37.2756L64.7802+36.9143L65.2388+36.8877L67.6786+39.2794L64.3814+52.6357L64.723+53.2967L63.9498+52.9193L63.3092+53.9186L61.132+55.8825L60.2729+56.277L59.2588+55.1582L60.2279+56.6317L58.7979+59.0331L57.6306+59.7258L56.2085+62.1305C56.2085+62.1305+53.5993+60.4331+50.1806+59.2413C49.996+59.177+49.9444+59.3499+49.7545+59.2874C48.632+58.9178+47.4214+58.5852+46.1727+58.3458C45.4633+58.2098+44.1188+57.9927+44.1188+57.9927L43.6816+57.4555L43.4992+56.9326L43.9042+56.0756L43.8711+55.343L43.1739+55.2872L42.3209+55.0124L42.8905+54.5007L44.0886+54.3921L44.472+53.5732L44.5794+53.4509L44.8145+53.3812L45.5629+53.3467L45.4183+54.1971L46.2975+53.6582L47.2509+54.5685L48.3609+54.9617L47.9529+55.6294L48.5881+55.2344L49.0552+55.6771L50.0413+55.1323L51.2349+54.8949L52.5202+55.6581L51.4254+54.7567L50.3342+54.8705L49.1035+55.4308L48.5449+54.9004L47.5335+54.3651L47.9646+53.3348L49.1818+52.9111L49.4671+51.4718L51.1637+52.4273L50.8157+49.2023L50.8601+51.9462L49.3283+51.1678L49.0209+52.6353L48.0425+52.8872L47.2254+54.3485L46.4036+53.4115L45.5793+53.8553L45.733+53.1462L44.7417+53.165L44.8317+53.0052L44.336+52.6314L43.6768+52.1343L42.9337+53.1377L43.4699+53.7101L43.6759+53.8742L43.6201+54.1903L42.6492+54.4059L41.7951+54.893L42.5324+55.2779L43.4063+55.4638L43.7781+55.7241L43.5271+56.6258L43.3412+56.8396L43.3079+57.2516L42.1875+57.7324L38.1919+56.8874L36.7239+57.3858L36.8498+56.3119L36.2112+53.1099L36.8446+51.8663L36.3832+50.3006L35.902+49.3562L35.2881+45.891L35.7744+43.4568L36.8236+43.5122L36.0774+43.1567L35.7561+42.1284L35.709+38.6946L39.0833+36.229L39.7096+35.9045L40.4395+36.1823L40.5633+36.6227L40.9218+37.4503L42.0129+37.2382L41.9344+38.383L42.5214+38.4893L44.0958+38.2511L44.5821+38.2568L45.5894+39.3365L46.0515+39.9009L46.4445+40.4985L45.8974+42.1179L46.0954+42.4543L46.1123+42.7828L45.2632+43.325L46.2237+42.9525L46.6851+44.3172L46.273+42.656L46.0713+42.0565L46.7895+40.2107L47.7342+40.4548L48.8617+40.5839L50.0515+40.5733L48.1462+40.3815L46.7065+40.0309L46.3594+39.6197L46.2509+39.2895L47.3627+37.296L45.909+39.4009L44.5791+37.9445L42.2199+38.3001L42.3773+37.0045L41.0348+37.1555L40.3611+35.7392L40.3151+35.1847L40.9614+34.8566L45.2107+31.8911L46.5411+32.2288Z" opacity="1" fill="#cdced3"/>
<path d="M180.014+87.8455L178.523+87.8934L180.005+88.1037L180.752+89.082L180.301+88.2628L179.865+86.3603L180.633+86.2957L185.835+91.6151L188.544+93.2995L188.205+93.7929L189.807+94.6347L189.997+101.412L189.569+102.151L187.982+100.827L186.975+100.867L187.922+100.984L188.586+101.601L189.294+102.398L188.942+103.232L186.034+108.25L184.887+108.57L184.224+108.518L183.344+107.62L182.856+107.518L181.029+107.464L181.496+106.376L181.147+106.115L180.109+106.956L179.645+107.22L179.298+107.009L179.966+104.82L178.575+103.854L177.295+104.37L175.922+105.87L176.097+107.677L177.918+108.503L178.55+110.176L178.195+108.39L178.414+107.402L179.312+107.335L179.594+107.539L181.24+106.433L180.875+107.197L180.916+107.763L182.745+107.732L183.35+107.982L184.39+108.911L185.036+108.943L185.461+108.852L185.744+109.299L184.693+113.093L169.385+117.218L168.909+117.931L168.858+116.94L167.493+116.852L164.298+115.751L163.421+115.105L163.984+113.459L163.039+115.258L159.819+115.155L158.47+114.364L155.252+114.271C155.252+114.271+155.508+110.693+154.803+106.581C154.765+106.359+154.562+106.403+154.519+106.177C154.266+104.839+153.926+103.433+153.471+102.04C153.213+101.249+152.682+99.7717+152.682+99.7717L152.98+99.0313L153.405+98.5557L154.495+98.4861L155.216+98.0441L154.883+97.31L154.685+96.2965L155.518+96.5855L156.296+97.7332L157.336+97.6631L157.519+97.7032L157.72+97.9014L158.172+98.6369L157.234+98.9653L158.268+99.5514L157.882+101.02L158.104+102.359L157.203+102.32L157.956+102.74L157.77+103.458L158.87+104.149L159.775+105.22L159.722+106.942L160.02+105.335L159.297+104.298L158.045+103.37L158.269+102.511L158.244+101.192L159.524+101.052L160.63+102.043L162.241+101.528L162.223+103.772L165.281+101.623L162.539+103.198L162.47+101.219L160.818+101.727L160.019+100.881L158.089+100.872L158.576+99.5207L157.669+98.9371L158.47+98.6966L157.898+97.7074L158.109+97.7091L158.21+97.0007L158.343+96.0587L156.917+95.8689L156.639+96.7289L156.588+97.0281L156.238+97.1481L155.479+96.2894L154.512+95.6997L154.535+96.6579L154.835+97.6428L154.78+98.163L153.73+98.4128L153.411+98.3445L152.977+98.5407L151.867+97.679L150.491+93.1784L149.17+91.976L150.323+91.504L153.196+89.0743L154.803+89.0194L156.125+87.6809L156.809+86.669L159.961+84.1172L162.686+83.25L163.216+84.339L163.158+83.3882L164.016+82.4908L167.452+80.5281L171.821+82.5558L172.497+83.0064L172.624+83.8973L172.249+84.2679L171.614+85.0909L172.437+86.0729L171.239+86.6322L171.459+87.2835L172.577+88.7382L172.842+89.2318L172.315+90.8498L172.004+91.6305L171.621+92.3602L169.683+92.7117L169.454+93.0989L169.132+93.2992L168.112+92.7453L169.023+93.5062L167.904+94.7326L169.349+93.3905L169.841+92.8528L172.103+92.5475L172.384+93.6364L172.883+94.8455L173.557+96.0393L172.688+94.011L172.238+92.3637L172.459+91.7842L172.732+91.4907L175.362+91.5L172.429+91.208L173.156+89.0546L171.481+86.8739L172.876+86.3101L171.975+85.0405L173.027+83.5711L173.561+83.2155L174.252+83.6843L179.612+86.3155L180.014+87.8455Z" opacity="1" fill="#cdced3"/>
<path d="M128.516+82.5239L130.717+82.2362L128.492+82.1403L127.244+80.8007L128.03+81.9479L128.952+84.7009L127.825+84.9081L119.352+77.79L115.095+75.6905L115.527+74.9107L113.032+73.8975L111.765+63.8928L112.292+62.7364L114.833+64.4662L116.318+64.2602L114.899+64.2251L113.827+63.4078L112.663+62.3313L113.062+61.0451L116.637+53.1931L118.289+52.5526L119.278+52.5339L120.711+53.7348L121.449+53.8149L124.161+53.63L123.628+55.3073L124.182+55.6436L125.597+54.2474L126.245+53.7897L126.79+54.0507L126.118+57.3895L128.319+58.6168L130.138+57.6666L131.953+55.2468L131.432+52.5968L128.615+51.6384L127.436+49.2546L128.222+51.8464L128.041+53.3411L126.722+53.5709L126.275+53.3104L123.998+55.1862L124.428+54.0021L124.285+53.1697L121.582+53.4819L120.649+53.201L118.975+51.9756L118.014+52.0228L117.398+52.2199L116.915+51.5984L117.919+45.8288L139.98+37.4978L140.581+36.373L140.8+37.8314L142.834+37.7641L147.723+38.9285L149.115+39.7576L148.522+42.277L149.659+39.4763L154.44+39.1604L156.553+40.1348L161.33+39.8045C161.33+39.8045+161.471+45.1382+163.112+51.1232C163.201+51.4463+163.495+51.3511+163.591+51.6798C164.161+53.6239+164.868+55.6563+165.744+57.6519C166.242+58.7855+167.243+60.8948+167.243+60.8948L166.91+62.0342L166.349+62.8L164.745+63.0615L163.743+63.8206L164.342+64.8591L164.784+66.3304L163.507+66.0238L162.189+64.438L160.66+64.6929L160.383+64.6602L160.056+64.396L159.28+63.373L160.621+62.7504L159.006+62.0332L159.364+59.8023L158.84+57.853L160.179+57.7798L159.004+57.2671L159.174+56.1773L157.447+55.3148L155.951+53.8605L155.779+51.304L155.571+53.726L156.792+55.1558L158.78+56.3485L158.574+57.6527L158.802+59.6011L156.928+59.9941L155.147+58.6878L152.837+59.6843L152.537+56.3601L148.322+59.987L152.153+57.2566L152.543+60.1758L154.914+59.183L156.221+60.3193L159.078+60.0521L158.554+62.1233L159.982+62.8554L158.831+63.3279L159.822+64.709L159.509+64.7373L159.463+65.8006L159.402+67.2145L161.541+67.288L161.828+65.9744L161.859+65.5242L162.36+65.2956L163.608+66.4566L165.126+67.1888L164.953+65.7736L164.366+64.3593L164.372+63.5813L165.888+63.0589L166.371+63.1135L166.985+62.76L168.753+63.8742L171.445+70.3365L173.576+71.9244L171.937+72.7907L168.038+76.8053L165.666+77.1203L163.905+79.2938L163.039+80.8913L158.744+85.127L154.835+86.8071L153.893+85.2721L154.117+86.6712L152.977+88.1244L148.176+91.5295L141.414+89.1631L140.347+88.5944L140.03+87.294L140.531+86.6909L141.351+85.3803L139.991+84.0461L141.683+83.0439L141.263+82.1119L139.396+80.121L138.931+79.4288L139.476+76.9571L139.823+75.7561L140.285+74.6202L143.103+73.818L143.385+73.2115L143.833+72.8683L145.423+73.5398L143.964+72.546L145.442+70.5677L143.497+72.7646L142.847+73.6322L139.543+74.413L138.969+72.842L138.055+71.1246L136.883+69.4553L138.465+72.3316L139.37+74.7048L139.127+75.5948L138.766+76.0689L134.871+76.4376L139.256+76.4433L138.493+79.7368L141.289+82.7215L139.306+83.7589L140.825+85.5073L139.481+87.8354L138.742+88.4394L137.651+87.8461L129.333+84.7305L128.516+82.5239Z" opacity="1" fill="#cdced3"/>
<path d="M121.278+97.7314L120.881+96.4994L121.061+97.7857L120.424+98.6437L120.999+98.0713L122.481+97.251L122.719+97.8761L119.532+103.49L118.777+106.154L118.284+105.989L117.967+107.527L112.361+109.312L111.642+109.133L112.366+107.492L112.09+106.661L112.22+107.479L111.865+108.181L111.37+108.963L110.59+108.87L105.707+107.649L105.165+106.769L105.05+106.204L105.587+105.254L105.555+104.823L105.162+103.286L106.181+103.414L106.315+103.061L105.364+102.397L105.033+102.073L105.125+101.733L107.112+101.765L107.583+100.373L106.846+99.4298L105.265+98.6444L103.8+99.224L103.548+100.941L102.305+101.87L103.709+101.145L104.586+101.09L104.857+101.823L104.755+102.107L106.072+103.215L105.347+103.093L104.885+103.264L105.35+104.781L105.287+105.346L104.761+106.436L104.89+106.982L105.068+107.315L104.763+107.658L101.346+107.692L94.2336+95.9165L93.5247+95.6907L94.3382+95.4108L94.0845+94.2512L94.2355+91.323L94.5639+90.4366L96.0721+90.5106L94.3449+90.154L93.6581+87.4447L93.9937+86.1295L93.2989+83.4236C93.2989+83.4236+96.3441+82.7789+99.6042+81.2041C99.7802+81.1191+99.6945+80.9604+99.8729+80.8703C100.928+80.3379+102.019+79.7171+103.071+79.0034C103.669+78.5979+104.773+77.8007+104.773+77.8007L105.462+77.8714L105.961+78.1122L106.281+79.0046L106.822+79.4992L107.355+79.0456L108.152+78.6368L108.111+79.4015L107.341+80.3254L107.649+81.1755L107.659+81.3379L107.542+81.5535L107.038+82.1071L106.538+81.4035L106.298+82.4062L104.98+82.4368L103.917+82.9435L103.733+82.1829L103.564+82.9115L102.92+82.9287L102.608+84.0112L101.932+85.0231L100.484+85.3923L101.895+85.2555L102.586+84.4034L103.06+83.137L103.83+83.1171L104.924+82.7804L105.348+83.8138L104.787+84.9741L105.603+86.1935L103.727+86.7176L106.254+88.7519L104.282+86.8431L105.916+86.3104L105.095+85.0553L105.609+84.1853L105.154+82.5743L106.397+82.6557L106.666+81.759L107.059+82.3692L107.747+81.6549L107.796+81.8316L108.411+81.7454L109.229+81.6307L109.044+80.3957L108.26+80.3702L107.999+80.3997L107.815+80.1368L108.349+79.2978L108.608+78.3494L107.815+78.5987L107.065+79.0851L106.618+79.164L106.158+78.3489L106.139+78.0662L105.871+77.7514L106.323+76.6191L109.746+74.3914L110.432+73.0009L111.102+73.8492L113.818+75.6619L114.249+76.9891L115.682+77.77L116.691+78.0976L119.575+80.1137L120.952+82.1787L120.171+82.8815L120.95+82.6052L121.904+83.1052L124.366+85.5L123.723+89.6294L123.51+90.3017L122.797+90.6214L122.398+90.3975L121.56+90.0658L120.938+90.9873L120.184+90.1223L119.694+90.4622L118.749+91.7439L118.401+92.0837L116.926+92.0325L116.2+91.9602L115.499+91.8155L114.741+90.2836L114.363+90.1857L114.119+89.9654L114.336+88.9816L113.92+89.9242L112.629+89.2854L114.095+90.1687L114.661+90.45L115.459+92.263L114.618+92.7584L113.73+93.4644L112.896+94.3132L114.379+93.1015L115.645+92.3314L116.181+92.3768L116.491+92.5335L117.114+94.7293L116.654+92.213L118.624+92.3024L120.041+90.3828L120.846+91.4102L121.688+90.3542L123.166+90.8792L123.591+91.2388L123.366+91.9278L122.458+97.0294L121.278+97.7314Z" opacity="1" fill="#cdced3"/>
<path d="M81.6678+104.6L82.8999+104.202L81.6136+104.383L80.7556+103.746L81.3279+104.321L82.1482+105.803L81.5231+106.041L75.9091+102.854L73.2452+102.099L73.4101+101.606L71.872+101.289L70.087+95.6828L70.2667+94.9636L71.9075+95.6873L72.7379+95.412L71.9199+95.5421L71.2184+95.1865L70.4366+94.692L70.5297+93.9119L71.7503+89.0289L72.6306+88.4867L73.1957+88.3714L74.1451+88.9088L74.5767+88.8767L76.113+88.4838L75.9849+89.5024L76.3383+89.6368L77.0025+88.6861L77.3258+88.355L77.6658+88.4471L77.6338+90.4337L79.026+90.9051L79.9695+90.1675L80.7549+88.5872L80.1753+87.1221L78.4582+86.87L77.5292+85.6272L78.2543+87.031L78.3088+87.9077L77.576+88.1791L77.292+88.0769L76.1843+89.3939L76.3059+88.669L76.1357+88.2066L74.6179+88.6716L74.053+88.6091L72.9628+88.0831L72.4168+88.2118L72.084+88.3901L71.7409+88.0846L71.707+84.6682L83.4827+77.5553L83.7086+76.8465L83.9884+77.66L85.148+77.4063L88.0762+77.5573L88.9627+77.8857L88.8886+79.3939L89.2453+77.6667L91.9545+76.9799L93.2697+77.3155L95.9757+76.6207C95.9757+76.6207+96.6204+79.6659+98.1951+82.926C98.2801+83.102+98.4389+83.0163+98.5289+83.1947C99.0614+84.2498+99.6822+85.341+100.396+86.3932C100.801+86.991+101.599+88.0953+101.599+88.0953L101.528+88.7842L101.287+89.2829L100.395+89.6026L99.9001+90.144L100.354+90.6765L100.762+91.4739L99.9978+91.433L99.0738+90.6626L98.2237+90.9705L98.0613+90.9811L97.8457+90.8641L97.2921+90.3593L97.9957+89.8602L96.993+89.6196L96.9625+88.3018L96.4557+87.2389L97.2163+87.0553L96.4878+86.8854L96.4706+86.2421L95.388+85.93L94.3762+85.2539L94.007+83.8053L94.1437+85.2169L94.9958+85.908L96.2623+86.382L96.2821+87.1521L96.6189+88.2458L95.5854+88.6695L94.4252+88.1085L93.2057+88.9244L92.6817+87.049L90.6473+89.5756L92.5562+87.604L93.0889+89.2375L94.3439+88.4172L95.2139+88.9309L96.8249+88.4754L96.7435+89.7191L97.6402+89.9881L97.0301+90.3808L97.7443+91.0684L97.5677+91.1178L97.6539+91.7327L97.7685+92.5503L99.0036+92.3662L99.0291+91.5823L98.9995+91.3206L99.2625+91.1366L100.101+91.6706L101.05+91.9302L100.801+91.1366L100.314+90.3872L100.235+89.9403L101.05+89.4801L101.333+89.4604L101.648+89.1927L102.78+89.6449L105.008+93.0678L106.398+93.7534L105.55+94.4237L103.737+97.1394L102.41+97.5709L101.629+99.0042L101.302+100.012L99.2855+102.897L97.2205+104.274L96.5177+103.493L96.794+104.272L96.2941+105.226L93.8993+107.688L89.7698+107.045L89.0976+106.832L88.7779+106.119L89.0017+105.72L89.3334+104.882L88.412+104.26L89.2769+103.506L88.9371+103.016L87.6554+102.071L87.3156+101.723L87.3668+100.247L87.4391+99.5215L87.5837+98.821L89.1156+98.0627L89.2135+97.6849L89.4339+97.4407L90.4176+97.6577L89.4751+97.2419L90.1138+95.9506L89.2305+97.4167L88.9493+97.9832L87.1363+98.7806L86.6409+97.94L85.9349+97.0513L85.0861+96.2176L86.2977+97.7005L87.0678+98.9663L87.0225+99.5026L86.8657+99.8128L84.67+100.436L87.1862+99.9758L87.0968+101.946L89.0165+103.363L87.989+104.168L89.0451+105.01L88.5201+106.488L88.1604+106.913L87.4715+106.688L82.3698+105.78L81.6678+104.6Z" opacity="1" fill="#cdced3"/>
<path d="M58.0676+92.1983L57.5593+90.2972L57.7332+92.2637L56.7005+93.5168L57.6178+92.6926L59.9308+91.5623L60.2439+92.5296L54.97+100.804L53.6185+104.79L52.8829+104.501L52.2817+106.812L43.6338+109.087L42.556+108.758L43.7817+106.324L43.4282+105.042L43.5622+106.294L42.9681+107.331L42.1569+108.479L40.9798+108.278L33.6622+106.046L32.9073+104.668L32.7762+103.801L33.6654+102.402L33.6502+101.744L33.1728+99.3815L34.7092+99.6549L34.9405+99.1288L33.5488+98.0469L33.0713+97.5305L33.2375+97.0215L32.8585+95.2001L37.074+95.1472L33.1252+94.8406L33.6895+92.3432C33.6895+92.3432+32.3051+91.0036+30.8508+90.1678C29.3965+89.332+27.8723+88.9999+27.8723+88.9999L25.5864+90.6952L24.8683+93.8321C24.8683+93.8321+25.2074+94.4353+25.5852+95.1072C25.9629+95.7791+26.3793+96.5197+26.3793+96.5197L28.9463+97.0104L31.6007+96.1329L32.4685+96.0037L32.8236+97.1371L32.6465+97.5602L34.5598+99.3439L33.4689+99.103L32.7538+99.3256L33.3421+101.666L33.2034+102.518L32.3205+104.132L32.4735+104.971L32.7183+105.49L32.2281+105.987L27.0394+105.774L17.1547+87.3476L16.0962+86.9498L17.3528+86.588L17.0576+84.8081L17.5136+80.3748L18.0809+79.0547L20.3645+79.284L17.7704+78.6088L16.9377+74.4429L17.549+72.4725L16.704+68.311C16.704+68.311+21.3765+67.5684+26.4473+65.4306C26.7211+65.3152+26.6033+65.0676+26.8811+64.9447C28.524+64.2182+30.2285+63.3605+31.8811+62.3586C32.8199+61.7895+34.558+60.6649+34.558+60.6649L35.5983+60.8256L36.3367+61.2298L36.7527+62.6092L37.5363+63.4019L38.3797+62.7547L39.6219+62.1958L39.5005+63.3534L38.2595+64.6963L38.661+66.0106L38.6645+66.2579L38.4701+66.5761L37.661+67.3774L36.9579+66.2706L36.515+67.7741L34.5123+67.7183L32.8594+68.4052L32.6396+67.2364L32.3254+68.3291L31.3475+68.3054L30.7899+69.9245L29.6851+71.4081L27.4576+71.8563L29.6109+71.7581L30.7261+70.5181L31.5438+68.6324L32.7143+68.662L34.4006+68.2356L36.2823+68.2781L37.2856+68.7734L39.8058+69.2886L40.5363+70.5296L38.894+70.9587L36.9793+72.5577L35.9564+77.4033L37.3307+73.477L40.3799+74.1012L37.1344+73.0365L38.161+71.7005L39.2418+71.095L41.1601+70.7806L40.2637+69.0126L37.8037+68.5143L36.6466+68.1605L37.1245+66.8202L37.6734+67.7768L38.7725+66.7459L38.8338+67.0178L39.0549+66.207L39.0785+65.6309L46.733+65.8805L39.6521+64.8355L39.2526+64.8601L38.9936+64.4467L39.8693+63.2146L40.3367+61.795L39.1128+62.1118L37.9376+62.7921L37.253+62.8772L36.6177+61.6043L36.6096+61.1737L36.2276+60.6751L37.0019+58.9913L38.963+57.6124L42.5004+58.6333L43.545+59.2031L45.3731+59.6304L48.1507+60.1527L51.1199+61.4636L54.0385+61.9095L57.386+63.2865L58.7777+68.5644L57.5376+69.5707L58.7416+69.2116L60.1514+70.0445L63.7022+73.8704L62.4069+80.0891L62.0308+81.093L60.9244+81.5231L60.3361+81.1524L59.0888+80.5839L58.0738+81.9345L56.9963+80.563L56.2257+81.0409L54.6923+82.9134L54.1378+83.4022L51.9017+83.2101L50.8055+83.0441L49.7534+82.7703L48.721+80.3861L48.1551+80.2082L47.8014+79.8548L48.2071+78.3783L47.5029+79.7768L45.5922+78.7072L47.7492+80.1616L48.5874+80.6325L49.6574+83.4463L48.3429+84.1332L46.9393+85.136L45.6078+86.3598L47.9527+84.6355L49.934+83.5646L50.7445+83.675L51.2032+83.937L51.9795+87.3184L51.4755+83.4631L54.4593+83.7515L56.7586+80.9473L57.9007+82.5693L59.2615+81.0315L61.4642+81.943L62.0808+82.5218L61.6859+83.5502L59.9126+91.2241L58.0676+92.1983Z" opacity="1" fill="#cdced3"/>
<path d="M129.118+131.885L128.179+129.653L128.79+132.027L128.007+133.75L128.766+132.573L130.888+130.764L131.421+131.889L127.837+142.984L127.329+148.108L126.511+147.89L126.403+150.827L118.041+155.205L116.864+155.001L117.585+151.797L116.94+150.294L117.353+151.801L116.973+153.179L116.394+154.734L115.143+154.704L107.153+153.323L106.076+151.777L105.751+150.74L106.354+148.865L106.194+148.063L105.185+145.261L106.819+145.312L106.941+144.626L105.277+143.559L104.673+143.015L104.732+142.362L103.943+140.204L108.251+139.362L104.137+139.715L104.166+136.556C104.166+136.556+102.452+135.173+100.778+134.418C99.1035+133.664+97.4683+133.539+97.4683+133.539L95.4986+136.034L95.4529+140.003C95.4529+140.003+95.9332+140.679+96.4681+141.431C97.0031+142.183+97.5927+143.012+97.5927+143.012L100.331+143.139L102.859+141.577L103.72+141.259L104.333+142.58L104.245+143.13L106.598+144.959L105.427+144.866L104.743+145.27L105.861+148.024L105.906+149.092L105.357+151.23L105.698+152.227L106.063+152.817L105.67+153.516L100.305+154.211L86.1208+133.493L84.9484+133.202L86.1567+132.527L85.4625+130.404L84.9545+124.897L85.2454+123.178L87.6362+123.037L84.8291+122.69L83.0591+117.747L83.2521+115.224L81.4705+110.289C81.4705+110.289+86.0957+108.52+90.8223+104.97C91.0774+104.778+90.9022+104.497+91.1599+104.296C92.6838+103.104+94.2419+101.741+95.7152+100.21C96.5521+99.3412+98.0859+97.6451+98.0859+97.6451L99.1875+97.65L100.033+98.0083L100.763+99.6189L101.741+100.444L102.462+99.497L103.613+98.5844L103.743+100.023L102.766+101.894L103.467+103.428L103.525+103.73L103.396+104.155L102.743+105.284L101.779+104.06L101.656+105.981L99.591+106.282L98.0482+107.427L97.5658+106.037L97.4841+107.432L96.4767+107.583L96.2615+109.667L95.4556+111.685L93.2714+112.644L95.4567+112.127L96.3267+110.405L96.7498+107.947L97.9559+107.768L99.5903+106.935L101.528+106.64L102.665+107.061L105.362+107.227L106.383+108.61L104.795+109.438L103.184+111.747L103.202+117.863L103.746+112.807L107.009+113.008L103.448+112.304L104.207+110.48L105.181+109.54L107.078+108.802L105.77+106.805L103.139+106.649L101.876+106.429L102.071+104.702L102.844+105.771L103.743+104.307L103.866+104.628L103.914+103.596L103.811+102.887L111.711+101.781L104.224+101.808L103.82+101.912L103.464+101.454L104.09+99.785L104.257+97.9623L103.072+98.5755L102.018+99.6243L101.335+99.8546L100.404+98.4146L100.301+97.8894L99.7993+97.3498L100.222+95.1474L101.929+93.0992L105.779+93.6959L106.975+94.2004L108.942+94.3861L111.904+94.513L115.235+95.5692L118.325+95.5767L122.058+96.6441L124.646+102.844L123.596+104.303L124.751+103.642L126.379+104.401L130.86+108.427L130.901+116.272L130.736+117.57L129.697+118.3L129.012+117.955L127.609+117.489L126.866+119.329L125.46+117.85L124.775+118.576L123.616+121.149L123.155+121.849L120.821+122.027L119.661+122.026L118.523+121.885L116.94+119.158L116.321+119.045L115.881+118.678L115.972+116.797L115.558+118.638L113.364+117.681L115.895+119.063L116.857+119.485L118.573+122.729L117.377+123.812L116.159+125.297L115.064+127.04L117.088+124.498L118.883+122.823L119.738+122.809L120.265+123.045L121.805+127.038L120.44+122.415L123.562+122.218L125.301+118.363L126.828+120.137L127.885+118.005L130.343+118.714L131.102+119.308L130.923+120.639L130.795+130.353L129.118+131.885Z" opacity="1" fill="#cdced3"/>
<path d="M75.0316+35.2489L85.0752+31.0425L88.1867+30.7648L88.9157+31.9805L89.0645+32.757L88.3123+34.0498L89.6092+34.4682L90.494+36.4542L89.0877+36.5155L88.9875+37.0241L90.4253+37.703L90.9473+38.0638L90.901+38.5445L90.8428+39.6353L88.5861+37.3314L86.8877+36.4632L84.1227+38.5292L85.0627+41.4697L88.7888+41.9177L91.6015+41.6156L92.9045+40.0443L91.7781+39.2893L91.2426+38.3614L91.3154+37.9541L89.2804+36.76L90.2881+36.7576L90.8739+36.421L89.896+34.4767L88.7246+33.9285L89.4635+32.4425L89.296+31.6918L89.0571+31.2328L89.4814+30.7673L96.0654+33.1871L99.1244+33.6759L101.529+35.785L109.693+37.8345L110.353+41.7946L109.936+44.2147L106.661+44.32L105.301+45.8985L106.934+44.5501L109.673+44.7117L110.224+45.6322L111.642+47.6557L111.28+50.1753L108.12+49.4732L107.566+50.9902L104.629+50.8236L100.914+50.3071L104.089+51.1275L108.037+51.2798L108.324+49.8199L110.976+50.5078L111.369+51.6371L112.809+56.5354L108.943+62.0654L108.094+62.344L107.554+60.2093L106.562+59.8363L106.43+57.7655L107.332+56.6192L105.767+55.5255L106.375+56.2518L107.074+56.7107L106.101+57.8094L104.877+59.3951L106.175+58.0632L105.987+59.8017L107.152+60.5586L108.2+63.234L102.129+70.6595C102.129+70.6595+94.9323+68.8233+87.4672+69.5294C86.4814+69.6226+85.8505+69.6592+85.8505+69.6592L83.8467+69.3135L83.8713+68.7445L84.5102+67.5878L84.5938+66.5859L83.6556+66.3875L82.5441+65.864L83.4086+65.2682L85.0567+65.3311L85.7219+64.285L85.8893+64.1376L86.2214+64.0842L87.245+64.1687L86.8989+65.2996L88.189+64.7213L89.3255+66.1265L90.7656+66.8563L89.6282+67.6431L90.5614+67.2176L91.1187+67.9016L92.5553+67.3341L94.22+67.2211L95.8335+68.4847L94.5033+67.0666L92.9995+67.0297L91.2277+67.5753L91.0267+66.8052L89.7454+65.8997L90.5127+64.5744L92.2421+64.2122L92.883+62.3054L95.022+63.9027L95.1154+59.4564L94.6937+63.1951L92.7477+61.8676L92.0719+63.809L90.6972+63.9796L89.3295+65.823L88.3766+64.4045L87.1779+64.8632L87.5115+63.9259L86.1603+63.7774L86.3108+63.5759L85.5428+63.1547L85.2497+61.138L84.8823+61.0202L85.1442+63.8813L84.3353+64.2951L84.5864+64.5544L84.4551+64.9744L83.0971+65.097L81.8501+65.6093L82.7851+66.2622L83.9406+66.6685L84.4005+67.0878L83.9007+68.2697L83.6277+68.6828L83.2766+69.1885L81.9864+70.2514L76.2865+66.9382L72.2136+61.6709C72.2136+61.6709+71.5716+60.3283+70.2602+58.8265C69.8962+58.4097+69.2324+57.9307+68.8175+57.5253C68.2385+56.9593+67.3889+56.8753+66.809+56.4144C65.4767+55.3554+64.5766+54.2062+64.5766+54.2062L66.4882+47.4777L66.6103+46.9263L69.7683+48.2941L71.3779+49.1826L71.5603+49.9673L72.4331+50.6652L71.4861+53.0265L72.5529+51.079L73.3949+50.8942L74.8428+51.8501L74.4094+51.3473L75.4149+50.6539L77.662+49.4917L78.3881+49.8805L79.0901+50.8966L80.1153+50.2945L81.4009+49.1238L82.7326+46.7667L87.3666+47.8221L83.5613+46.7797L83.0179+46.3355L82.1269+45.4963L81.2557+45.9046L82.0785+45.7931L82.6186+46.3708L81.5062+48.602L80.3182+49.963L79.1457+50.5349L78.4977+49.6165L77.7321+49.2226L75.5362+50.3765L74.132+51.1913L73.4271+50.386L73.4569+49.3239L72.4735+48.5352L71.4568+48.9342L70.4109+48.3533L68.7704+47.712C68.7704+47.712+67.3551+47.1271+67.0923+46.9926C66.8294+46.8582+66.792+46.4084+66.792+46.4084L67.4415+44.1223L73.5115+41.3194L75.0316+35.2489Z" opacity="1" fill="#cdced3"/>
<path d="M177.589+139.189L172.25+148.679L169.966+150.811L168.644+150.299L168.049+149.778L167.848+148.296L166.568+148.763L164.649+147.74L165.721+146.827L165.488+146.364L163.936+146.712L163.303+146.749L163.044+146.341L162.419+145.445L165.616+145.875L167.489+145.517L168.401+142.188L165.852+140.445L162.637+142.382L160.604+144.348L160.542+146.389L161.894+146.292L162.887+146.695L163.08+147.061L165.419+146.753L164.625+147.374L164.37+147.999L166.336+148.932L167.597+148.645L167.928+150.272L168.521+150.761L168.992+150.976L168.943+151.604L162.262+153.741L159.548+155.235L156.355+155.049L148.655+158.448L145.701+155.73L144.543+153.564L147.062+151.469L147.164+149.388L146.705+151.455L144.445+153.011L143.444+152.623L141.082+151.898L139.82+149.688L142.744+148.3L142.249+146.763L144.668+145.089L147.916+143.214L144.907+144.518L141.699+146.824L142.369+148.152L139.855+149.239L138.851+148.59L134.705+145.61L134.356+138.872L134.856+138.13L136.593+139.482L137.605+139.167L138.982+140.719L138.974+142.178L140.881+142.079L139.955+141.88L139.122+141.947L139.214+140.482L139.205+138.48L139+140.328L138.08+138.841L136.695+138.96L134.224+137.493L134.451+127.904C134.451+127.904+141.257+124.93+146.713+119.786C147.433+119.107+147.908+118.69+147.908+118.69L149.702+117.732L150.032+118.196L150.239+119.501L150.788+120.343L151.65+119.923L152.849+119.653L152.533+120.654L151.194+121.617L151.312+122.851L151.271+123.07L151.042+123.316L150.182+123.879L149.76+122.774L149.098+124.023L147.338+123.613L145.753+123.922L146.167+122.602L145.692+123.511L144.832+123.314L144.048+124.645L142.804+125.757L140.754+125.751L142.675+126.053L143.884+125.158L144.947+123.639L145.579+124.123L147.146+124.05L147.355+125.567L146.213+126.915L146.879+128.813L144.21+128.868L146.869+132.433L144.904+129.224L147.255+129.076L146.595+127.129L147.575+126.149L147.521+123.855L149.145+124.388L149.808+123.29L150.121+124.234L151.278+123.521L151.283+123.772L152.148+123.633L153.619+125.044L153.981+124.911L152.016+122.815L152.4+121.991L152.043+121.941L151.888+121.529L152.884+120.598L153.553+119.427L152.414+119.487L151.253+119.876L150.633+119.828L150.3+118.588L150.262+118.095L150.228+117.48L150.593+115.849L157.126+114.96L163.576+116.613C163.576+116.613+164.907+117.277+166.865+117.656C167.408+117.761+168.226+117.731+168.802+117.796C169.607+117.887+170.329+117.431+171.07+117.439C172.771+117.455+174.188+117.809+174.188+117.809L176.814+124.292L177.057+124.802L173.725+125.663L171.909+125.951L171.283+125.444L170.165+125.43L169.462+122.985L169.817+125.177L169.266+125.841L167.536+125.976L168.187+126.106L167.82+127.271L166.761+129.569L165.95+129.709L164.771+129.338L164.333+130.443L164.038+132.157L164.436+134.835L160.131+136.85L163.774+135.334L164.475+135.35L165.694+135.465L166.13+134.607L165.55+135.201L164.769+135.077L164.275+132.633L164.376+130.829L164.95+129.658L166.025+129.984L166.871+129.824L167.895+127.565L168.502+126.059L169.553+126.261L170.182+127.118L171.442+127.135L171.999+126.196L173.181+126.011L174.87+125.509C174.87+125.509+176.346+125.101+176.636+125.046C176.926+124.99+177.232+125.322+177.232+125.322L178.124+127.525L175.058+133.466L177.589+139.189Z" opacity="1" fill="#cdced3"/>
<path d="M73.2127+122.613L75.2953+133.301L74.9364+136.404L73.5981+136.872L72.8075+136.86L71.6941+135.861L71.0214+137.047L68.8973+137.51L69.1224+136.121L68.6446+135.919L67.6884+137.19L67.2293+137.628L66.7679+137.485L65.7115+137.207L68.4251+135.464L69.6197+133.977L68.1573+130.851L65.0872+131.175L63.8931+134.733L63.6186+137.548L64.893+139.143L65.8608+138.193L66.8779+137.857L67.2621+138.01L68.8439+136.26L68.642+137.247L68.8528+137.889L70.9549+137.326L71.7293+136.29L73.0346+137.315L73.8037+137.303L74.3016+137.162L74.6713+137.672L70.9669+143.628L69.868+146.525L67.3152+148.451L63.653+156.03L59.6413+155.874L57.356+154.975L57.9169+151.746L56.6468+150.095L57.6364+151.967L56.9227+154.616L55.9096+154.969L53.6405+155.948L51.2468+155.082L52.5749+152.131L51.2018+151.28L51.9604+148.438L53.2193+144.905L51.7723+147.848L50.8227+151.683L52.1939+152.26L50.9828+154.717L49.7971+154.874L44.7086+155.29L40.0773+150.384L39.9768+149.495L42.1766+149.399L42.7431+148.503L44.7975+148.794L45.7371+149.91L47.1254+148.599L46.291+149.047L45.6998+149.639L44.8213+148.463L43.5166+146.943L44.5577+148.484L42.8933+147.948L41.9159+148.935L39.0836+149.419L33.0434+141.968C33.0434+141.968+36.3006+135.293+37.1228+127.84C37.2314+126.856+37.3235+126.231+37.3235+126.231L38.0683+124.339L38.6205+124.478L39.6237+125.338L40.5878+125.623L40.9723+124.745L41.7103+123.762L42.1184+124.73L41.7227+126.331L42.6121+127.194L42.7225+127.388L42.7076+127.724L42.4172+128.709L41.3799+128.141L41.6846+129.522L40.0782+130.35L39.0716+131.612L38.5317+130.339L38.7592+131.339L37.9764+131.746L38.2409+133.268L38.014+134.921L36.4495+136.244L38.1078+135.229L38.4489+133.764L38.2738+131.919L39.0687+131.878L40.2152+130.807L41.3573+131.827L41.3614+133.594L43.0987+134.608L41.1009+136.379L45.4358+137.372L41.8604+136.201L43.5548+134.564L41.7908+133.509L41.9024+132.128L40.3747+130.415L41.9569+129.77L41.7508+128.503L42.6009+129.02L43.0203+127.727L43.1871+127.915L43.7553+127.248L45.7896+127.37L45.9794+127.034L43.1246+126.711L42.8834+125.834L42.5785+126.028L42.1939+125.814L42.3492+124.459L42.1004+123.134L41.2715+123.918L40.6393+124.967L40.1355+125.332L39.0794+124.603L38.7303+124.252L38.3063+123.806L37.5271+122.327L41.9271+117.417L47.9109+114.497C47.9109+114.497+49.3557+114.14+51.0922+113.161C51.5742+112.889+52.1778+112.336+52.659+112.012C53.3305+111.559+53.5851+110.745+54.154+110.27C55.4611+109.18+56.769+108.532+56.769+108.532L62.9702+111.768L63.4853+111.999L61.5057+114.814L60.3092+116.21L59.5038+116.23L58.6434+116.943L56.5232+115.537L58.2139+116.977L58.2242+117.838L56.9946+119.062L57.5748+118.74L58.05+119.865L58.7324+122.301L58.2045+122.933L57.0671+123.415L57.4489+124.541L58.3345+126.037L60.3727+127.819L58.3996+132.143L60.192+128.628L60.7371+128.186L61.7395+127.484L61.5163+126.548L61.4587+127.376L60.7834+127.788L58.8241+126.246L57.7323+124.807L57.4101+123.543L58.4408+123.094L58.9817+122.425L58.297+120.04L57.7838+118.5L58.7153+117.973L59.7493+118.218L60.721+117.415L60.5364+116.338L61.3173+115.432L62.2779+113.955C62.2779+113.955+63.1376+112.688+63.3226+112.458C63.5076+112.228+63.9556+112.282+63.9556+112.282L66.0625+113.382L67.5764+119.894L73.2127+122.613Z" opacity="1" fill="#cdced3"/>
<path d="M67.6572+29.9862L67.2571+27.7121L70.1805+27.5591L72.6422+28.9135L72.5202+32.0231L71.7328+34.3837L69.4738+35.5019L67.6344+31.6993L67.6572+29.9862Z" opacity="1" fill="#cdced3"/>
<path d="M137.586+111.668L137.186+109.394L140.11+109.241L142.571+110.595L142.449+113.705L141.662+116.066L139.403+117.184L137.563+113.381L137.586+111.668Z" opacity="1" fill="#cdced3"/>
<path d="M27.7934+120.041L27.3933+117.767L30.3167+117.614L32.7783+118.968L32.6563+122.078L31.869+124.438L29.6099+125.556L27.7705+121.754L27.7934+120.041Z" opacity="1" fill="#cdced3"/>
<path d="M133.133+101.555L132.752+99.2776L135.676+99.1485L138.127+100.523L137.98+103.631L137.173+105.986L134.905+107.085L133.097+103.268L133.133+101.555Z" opacity="1" fill="#cdced3"/>
<path d="M108.026+68.4143L107.455+70.1493L105.782+72.2181L104.592+73.6108L103.576+76.4607L101.626+75.7327L100.782+73.3577L102.475+71.7841L104.739+68.903L108.026+68.4143Z" opacity="1" fill="#cdced3"/>
<path d="M67.2587+156.561L66.6875+158.296L65.0141+160.365L63.824+161.758L62.8088+164.608L60.8584+163.88L60.0139+161.505L61.7079+159.931L63.9711+157.05L67.2587+156.561Z" opacity="1" fill="#cdced3"/>
<path d="M59.6452+105.553L59.9596+107.841L57.0325+107.884L54.6235+106.438L54.8623+103.335L56.5166+100.845L56.8592+99.5534L58.5925+99.9167L59.7325+103.842L59.6452+105.553Z" opacity="1" fill="#cdced3"/>
<path d="M104.431+34.3812C104.156+33.6146+105.58+32.9365+105.58+32.9365L111.096+34.0573L113.508+37.0824L115.857+38.0381L113.847+38.8277L110.889+37.2703L106.68+36.0029C106.68+36.0029+104.706+35.1478+104.431+34.3812Z" opacity="1" fill="#cdced3"/>
<path d="M135.538+153.476C136.343+153.629+136.265+155.613+136.265+155.613L132.662+161.058L128.855+161.925L126.9+163.958L127.158+161.259L129.932+158.909L133.044+155.001C133.044+155.001+134.733+153.323+135.538+153.476Z" opacity="1" fill="#cdced3"/>
<path d="M72.9225+106.142C73.3248+105.418+74.8336+106.003+74.8336+106.003L77.7809+110.82L77.1107+114.654L77.9961+117.032L75.9963+116.093L75.1547+112.858L73.2245+108.901C73.2245+108.901+72.5203+106.867+72.9225+106.142Z" opacity="1" fill="#cdced3"/>
<path d="M31.7404+27.2323L32.9736+26.5472L35.8785+27.2871L34.5837+28.0745L32.8091+28.2737L31.4333+28.7639L31.2745+27.8352L31.7404+27.2323Z" opacity="1" fill="#cdced3"/>
<path d="M33.4598+55.1313L34.5578+55.4002L36.3504+56.2292L36.3728+57.0583C36.3728+57.0583+36.0568+57.3761+35.6423+57.8579C35.2278+58.3396+34.7147+58.9853+34.7147+58.9853L33.9191+58.1763L32.7876+57.8425L31.5104+58.8061L30.9054+57.9546L30.9502+57.0807L32.4774+56.481L33.4598+55.1313Z" opacity="1" fill="#cdced3"/>
</g>
</svg>
